<svg width="543" height="197" viewBox="0 0 543 197" fill="none" xmlns="http://www.w3.org/2000/svg">
<path d="M315.314 67.5482L315.323 67.5591C318.438 71.4262 322.742 73.3318 328.302 73.3318C332.316 73.3318 335.686 72.412 338.039 70.304C340.268 68.6135 341.602 65.9313 341.602 63.1318C341.602 60.439 340.374 57.8584 338.247 56.1668C337.105 55.1485 335.298 54.2028 332.926 53.3197C330.517 52.4228 327.444 51.5611 323.717 50.7551C311.663 48.0651 303.174 44.5109 298.272 40.0892L298.259 40.0781L298.247 40.0673C293.374 35.9588 290.611 29.9486 290.802 23.5616V23.5467V23.5318C290.802 19.1314 292.142 14.7302 294.625 11.0998C297.522 6.94895 301.468 3.68495 306.164 1.86415L306.182 1.85695L306.2 1.84915C311.323 -0.374127 318.569 -1.56824 327.802 -1.56824C339.104 -1.56824 347.561 0.518003 353.319 4.64465L353.329 4.65095C358.812 8.48955 362.256 14.6462 363.472 23.1953L339.419 24.583C338.646 20.8775 337.205 18.0159 334.839 16.0608C332.308 13.9702 329.057 13.0318 325.002 13.0318C321.678 13.0318 319.02 13.7558 317.175 15.2528C315.481 16.6094 314.293 18.6891 314.402 21.057C314.411 22.8881 315.375 24.5439 316.762 25.6016C317.565 26.3265 318.806 26.9451 320.368 27.4992C321.977 28.0702 324.024 28.6058 326.497 29.1105C338.582 31.7076 347.072 34.2859 352.248 36.9228C357.431 39.5631 361.063 42.7476 363.241 46.4398L363.245 46.4463C365.546 50.2814 366.698 54.6951 366.602 59.2105V59.2211V59.2318C366.602 64.6446 365.055 70.0458 361.975 74.569L361.973 74.5732C358.78 79.3136 354.332 82.9877 349.11 85.2117L349.1 85.216C343.563 87.6449 336.509 88.9317 328.002 88.9317C312.866 88.9317 302.716 86.0316 297.109 80.4247C291.601 74.9168 288.247 68.0721 287.39 59.7636L311.75 58.189C312.389 62.1297 313.499 65.2279 315.314 67.5482ZM33.9016 52.0318V87.3318H8.20158V0.0317631H53.3016C61.7732 0.0317631 68.2421 0.732672 72.5854 2.18045L72.5853 2.18055L72.5984 2.18465C76.7846 3.51665 80.497 6.27765 82.9695 9.98645L82.9725 9.99085C85.7517 14.1118 87.098 18.9079 87.0018 23.9126L87.0013 23.9392L87.0022 23.9659C87.29 32.4079 82.9723 40.4534 75.6065 44.6629C72.7041 46.3074 69.5125 47.4674 66.2278 48.047L66.132 49.9948C68.5003 50.6579 70.8912 51.7985 73.0129 53.1425C74.6113 54.4671 75.9451 55.9888 77.2072 57.6393L77.2286 57.667L77.2518 57.6934C78.6947 59.3287 79.9515 61.163 81.0193 63.1026L93.6583 87.5318H64.499L49.9822 60.5578L49.9805 60.5547C48.0854 57.0638 46.3945 54.5732 44.693 53.3254L44.6841 53.3189L44.6751 53.3126C42.4958 51.7871 39.8927 51.0318 37.3016 51.0318H34.9016H33.9016V52.0318ZM33.9016 35.2318V36.2318H34.9016H46.6016H46.6415L46.6813 36.2286C49.2246 36.0252 51.667 35.6191 54.1065 35.0113C56.1533 34.6593 57.9635 33.5179 59.2048 31.8275C62.2028 27.8258 61.7615 22.1554 58.0863 18.703L58.0646 18.6826L58.0418 18.6636C56.9738 17.7736 55.4789 17.1498 53.6708 16.7436C51.8524 16.3351 49.6495 16.1318 47.1016 16.1318H34.9016H33.9016V17.1318V35.2318ZM12.7714 146.389L12.759 146.378L12.7462 146.367C7.87333 142.259 5.11048 136.249 5.30113 129.862L5.30158 129.847V129.832C5.30158 125.432 6.64157 121.031 9.12426 117.401C12.0214 113.249 15.9669 109.985 20.6631 108.164L20.6816 108.157L20.6997 108.149C25.8228 105.926 33.0687 104.732 42.3016 104.732C53.6036 104.732 62.0611 106.818 67.8191 110.945C73.3094 114.88 76.663 120.952 77.8718 129.496L53.8188 130.883C53.0466 127.182 51.6085 124.323 49.247 122.368C46.8033 120.262 43.4372 119.33 39.3888 119.432C36.0879 119.434 33.4232 120.151 31.5715 121.755C29.7466 123.137 28.6933 125.228 28.8017 127.557C28.8105 129.388 29.7749 131.044 31.1617 132.102C31.9647 132.827 33.2055 133.445 34.7672 133.999C36.3763 134.57 38.4241 135.106 40.8966 135.611C52.9817 138.208 61.4716 140.786 66.6477 143.423C71.8303 146.063 75.4628 149.248 77.6402 152.94L77.6441 152.947C79.9461 156.783 81.1016 161.204 81.1016 165.632C81.1016 171.028 79.4635 176.336 76.4693 180.878C73.277 185.616 68.8298 189.289 63.6097 191.512L63.5999 191.516C58.0622 193.945 51.0084 195.232 42.5016 195.232C27.3687 195.232 17.2192 192.333 11.6117 186.728C6.11169 181.133 2.93261 174.287 2 165.963L26.3496 164.389C26.9881 168.329 28.0979 171.427 29.9132 173.747C32.928 177.623 37.3374 179.632 42.9016 179.632C46.9221 179.632 50.2968 178.709 52.6499 176.594C54.8494 174.824 56.2016 172.255 56.2016 169.432C56.2016 166.739 54.9733 164.159 52.8464 162.467C51.704 161.448 49.8965 160.503 47.5114 159.619C45.09 158.722 41.9915 157.861 38.2146 157.055C26.1617 154.365 17.6734 150.811 12.7714 146.389Z" fill="white" stroke="#8D6EE6" stroke-width="2"/>
<path d="M117.002 123.332C110.388 123.332 105.263 125.984 101.768 131.38C99.1033 135.329 97.8016 141.47 97.8016 149.532C97.8016 159.457 99.2898 166.572 102.525 170.562C105.748 174.537 110.257 176.432 116.002 176.432C121.491 176.432 125.792 174.873 128.734 171.713L128.745 171.701L128.756 171.689C131.42 168.631 133.395 164.511 134.64 159.299L156.922 166.021C155.588 171.642 153.038 176.993 149.598 181.737C146.306 186.092 141.945 189.486 136.994 191.719C131.959 193.945 125.508 195.132 117.602 195.132C107.985 195.132 100.142 193.742 94.2188 191.023L94.2132 191.021C88.2345 188.321 83.0705 183.477 78.6463 176.497C74.2771 169.603 72.1016 160.706 72.1016 149.732C72.1016 135.104 75.9534 123.994 83.6087 116.339C91.2737 108.674 102.092 104.732 116.302 104.732C127.472 104.732 136.047 107.006 142.326 111.349C148.276 115.628 152.843 122.084 155.986 130.799L133.588 135.756C132.976 133.878 132.127 132.017 131.034 130.377L131.025 130.364L131.016 130.351C129.418 128.114 127.394 126.413 124.965 125.145C122.492 123.855 119.726 123.332 117.002 123.332ZM191.402 193.632V106.232H217.002V136.532V137.532H218.002H248.202H249.202V136.532V106.232H275.002V193.632H249.202V158.432V157.432H248.202H218.002H217.002V158.432V193.632H191.402Z" fill="white" stroke="#8D6EE6" stroke-width="2"/>
<path d="M358.716 174.469L358.713 174.474C355.406 180.894 350.248 186.151 343.918 189.657C337.4 193.256 329.277 195.132 319.502 195.132C309.503 195.132 301.366 193.547 294.944 190.435C288.321 187.122 282.871 181.962 279.271 175.637L279.265 175.627C275.275 168.815 273.202 160.3 273.202 149.932C273.202 135.523 277.243 124.405 285.109 116.539C292.975 108.673 304.094 104.632 318.402 104.632C333.121 104.632 344.238 108.579 352.099 116.343C359.96 124.107 363.902 135.022 363.902 149.232C363.902 159.624 362.12 167.952 358.716 174.469ZM304.031 170.168L304.039 170.178C307.553 174.332 312.448 176.432 318.502 176.432C324.638 176.432 329.541 174.443 333.065 170.278C336.61 166.088 338.202 158.869 338.202 148.832C338.202 140.342 336.492 133.842 332.851 129.77C329.237 125.627 324.353 123.636 318.321 123.632C312.912 123.426 307.734 125.762 304.148 129.875C300.507 134.052 298.802 140.856 298.802 150.032C298.802 159.116 300.51 165.901 304.031 170.168ZM479.716 174.469L479.713 174.474C476.406 180.894 471.249 186.15 464.919 189.657C458.401 193.256 450.277 195.132 440.502 195.132C430.503 195.132 422.366 193.547 415.944 190.435C409.321 187.122 403.871 181.962 400.271 175.637L400.265 175.627C396.275 168.815 394.202 160.3 394.202 149.932C394.202 135.523 398.243 124.405 406.109 116.539C413.975 108.673 425.094 104.632 439.402 104.632C454.125 104.632 465.337 108.581 473.095 116.339C480.863 124.108 484.902 135.028 484.902 149.232C484.902 159.624 483.12 167.952 479.716 174.469ZM425.031 170.168L425.039 170.178C428.553 174.332 433.448 176.432 439.502 176.432C445.638 176.432 450.541 174.443 454.065 170.278C457.61 166.088 459.202 158.869 459.202 148.832C459.202 140.342 457.492 133.842 453.851 129.77C450.237 125.627 445.353 123.636 439.321 123.632C433.923 123.426 428.638 125.754 425.143 129.88C421.505 134.058 419.802 140.86 419.802 150.032C419.802 159.116 421.51 165.901 425.031 170.168Z" fill="white" stroke="#8D6EE6" stroke-width="2"/>
<path d="M510.602 173.632H552.702V193.632H483.902V106.232H509.602V172.632V173.632H510.602Z" fill="white" stroke="#8D6EE6" stroke-width="2"/>
<path d="M456.565 89.4846C484.352 68.5445 492.921 33.0478 475.703 10.2006C458.486 -12.6468 422.003 -14.193 394.215 6.74695C366.428 27.687 357.859 63.1837 375.077 86.031C392.294 108.879 428.778 110.425 456.565 89.4846Z" fill="white"/>
<path d="M456.565 89.4846C484.352 68.5445 492.921 33.0478 475.703 10.2006C458.486 -12.6468 422.003 -14.193 394.215 6.74695C366.428 27.687 357.859 63.1837 375.077 86.031C392.294 108.879 428.778 110.425 456.565 89.4846Z" fill="white"/>
<path d="M456.565 89.4846C484.352 68.5445 492.921 33.0478 475.703 10.2006C458.486 -12.6468 422.003 -14.193 394.215 6.74695C366.428 27.687 357.859 63.1837 375.077 86.031C392.294 108.879 428.778 110.425 456.565 89.4846Z" fill="white" stroke="#D22626" stroke-width="4" stroke-miterlimit="10"/>
<path d="M456.565 89.4846C484.352 68.5445 492.921 33.0478 475.703 10.2006C458.486 -12.6468 422.003 -14.193 394.215 6.74695C366.428 27.687 357.859 63.1837 375.077 86.031C392.294 108.879 428.778 110.425 456.565 89.4846Z" stroke="#8D6EE6" stroke-width="4" stroke-miterlimit="10"/>
<path d="M397.286 41.5439L407.286 34.5439L419.586 52.0439C421.686 54.8439 423.286 57.8439 424.486 61.1439C425.186 63.6439 424.986 66.3439 423.986 68.7439C422.686 71.7439 420.586 74.2438 417.786 76.0438C414.486 78.3438 411.686 79.6438 409.286 80.0438C406.986 80.4438 404.586 80.0438 402.386 79.0438C399.986 77.8438 397.886 76.1438 396.286 73.9438L404.886 65.9438C405.586 67.0438 406.486 68.0438 407.486 68.8438C408.186 69.3438 408.986 69.6439 409.886 69.6439C410.586 69.6439 411.286 69.3438 411.786 68.9438C412.786 68.3438 413.486 67.1438 413.386 65.9438C413.086 64.2438 412.386 62.5439 411.286 61.2439L397.286 41.5439ZM427.286 52.6439L436.386 45.4438C437.386 46.6438 438.686 47.5439 440.086 48.0439C442.086 48.6439 444.186 48.2438 445.886 46.9438C447.086 46.1438 448.086 45.0439 448.486 43.6439C449.086 41.8439 448.086 39.8439 446.286 39.2439C445.986 39.1439 445.686 39.0439 445.386 39.0439C444.186 38.9439 442.086 39.4439 438.986 40.7439C433.886 42.8439 429.886 43.6439 426.886 43.3439C423.986 43.0439 421.286 41.5439 419.686 39.0439C418.486 37.3439 417.886 35.3439 417.786 33.3439C417.786 31.0439 418.386 28.7439 419.686 26.8439C421.586 24.1439 423.886 21.8438 426.686 20.0438C430.886 17.1438 434.586 15.7439 437.786 15.7439C440.986 15.7439 443.986 17.2439 446.786 20.3439L437.786 27.4438C435.986 25.1438 432.586 24.6438 430.286 26.4438L429.986 26.7439C428.986 27.3439 428.286 28.2439 427.886 29.3439C427.586 30.1439 427.786 31.0439 428.286 31.7439C428.686 32.2439 429.286 32.6439 429.986 32.6439C430.786 32.7439 432.186 32.3438 434.186 31.4438C439.186 29.3438 442.986 28.1439 445.586 27.7439C447.786 27.3439 450.086 27.5438 452.186 28.4438C454.086 29.2438 455.686 30.6439 456.786 32.3439C458.186 34.3439 458.986 36.7439 459.086 39.2439C459.186 41.8439 458.486 44.3439 457.086 46.5439C455.286 49.2439 452.986 51.5438 450.286 53.3438C444.786 57.1438 440.286 58.7439 436.686 58.1439C432.786 57.5439 429.586 55.5439 427.286 52.6439Z" fill="#8D6EE6"/>
</svg>
